<svg id="visual" viewBox="0 0 960 540" width="960" height="540" xmlns="http://www.w3.org/2000/svg" xmlns:xlink="http://www.w3.org/1999/xlink" version="1.1"><rect x="0" y="0" width="960" height="540" fill="#d8d0c8"></rect><defs><linearGradient id="grad1_0" x1="43.8%" y1="0%" x2="100%" y2="100%"><stop offset="14.444444444444446%" stop-color="#009dff" stop-opacity="1"></stop><stop offset="85.55555555555554%" stop-color="#009dff" stop-opacity="1"></stop></linearGradient></defs><defs><linearGradient id="grad1_1" x1="43.8%" y1="0%" x2="100%" y2="100%"><stop offset="14.444444444444446%" stop-color="#009dff" stop-opacity="1"></stop><stop offset="85.55555555555554%" stop-color="#d496d4" stop-opacity="1"></stop></linearGradient></defs><defs><linearGradient id="grad1_2" x1="43.8%" y1="0%" x2="100%" y2="100%"><stop offset="14.444444444444446%" stop-color="#e9afb0" stop-opacity="1"></stop><stop offset="85.55555555555554%" stop-color="#d496d4" stop-opacity="1"></stop></linearGradient></defs><defs><linearGradient id="grad1_3" x1="43.8%" y1="0%" x2="100%" y2="100%"><stop offset="14.444444444444446%" stop-color="#e9afb0" stop-opacity="1"></stop><stop offset="85.55555555555554%" stop-color="#d8d0c8" stop-opacity="1"></stop></linearGradient></defs><defs><linearGradient id="grad2_0" x1="0%" y1="0%" x2="56.3%" y2="100%"><stop offset="14.444444444444446%" stop-color="#009dff" stop-opacity="1"></stop><stop offset="85.55555555555554%" stop-color="#009dff" stop-opacity="1"></stop></linearGradient></defs><defs><linearGradient id="grad2_1" x1="0%" y1="0%" x2="56.3%" y2="100%"><stop offset="14.444444444444446%" stop-color="#d496d4" stop-opacity="1"></stop><stop offset="85.55555555555554%" stop-color="#009dff" stop-opacity="1"></stop></linearGradient></defs><defs><linearGradient id="grad2_2" x1="0%" y1="0%" x2="56.3%" y2="100%"><stop offset="14.444444444444446%" stop-color="#d496d4" stop-opacity="1"></stop><stop offset="85.55555555555554%" stop-color="#e9afb0" stop-opacity="1"></stop></linearGradient></defs><defs><linearGradient id="grad2_3" x1="0%" y1="0%" x2="56.3%" y2="100%"><stop offset="14.444444444444446%" stop-color="#d8d0c8" stop-opacity="1"></stop><stop offset="85.55555555555554%" stop-color="#e9afb0" stop-opacity="1"></stop></linearGradient></defs><g transform="translate(960, 0)"><path d="M0 405C-46.6 381.4 -93.2 357.8 -140.4 339.1C-187.7 320.3 -235.6 306.3 -277.2 277.2C-318.7 248 -353.9 203.7 -374.2 155C-394.4 106.3 -399.7 53.1 -405 0L0 0Z" fill="#e1c1b5"></path><path d="M0 303.8C-34.9 286.1 -69.9 268.4 -105.3 254.3C-140.8 240.2 -176.7 229.7 -207.9 207.9C-239.1 186 -265.4 152.8 -280.6 116.2C-295.8 79.7 -299.8 39.8 -303.7 0L0 0Z" fill="#e89fbc"></path><path d="M0 202.5C-23.3 190.7 -46.6 178.9 -70.2 169.5C-93.9 160.1 -117.8 153.2 -138.6 138.6C-159.4 124 -177 101.9 -187.1 77.5C-197.2 53.1 -199.9 26.6 -202.5 0L0 0Z" fill="#a097ef"></path><path d="M0 101.3C-11.6 95.4 -23.3 89.5 -35.1 84.8C-46.9 80.1 -58.9 76.6 -69.3 69.3C-79.7 62 -88.5 50.9 -93.5 38.7C-98.6 26.6 -99.9 13.3 -101.2 0L0 0Z" fill="#009dff"></path></g><g transform="translate(0, 540)"><path d="M0 -405C53.8 -393.9 107.6 -382.7 147.3 -355.7C187 -328.7 212.6 -285.7 252.4 -252.4C292.3 -219.1 346.4 -195.5 374.2 -155C402 -114.5 403.5 -57.3 405 0L0 0Z" fill="#e1c1b5"></path><path d="M0 -303.7C40.4 -295.4 80.7 -287 110.5 -266.8C140.3 -246.5 159.5 -214.3 189.3 -189.3C219.2 -164.4 259.8 -146.6 280.6 -116.2C301.5 -85.9 302.6 -42.9 303.8 0L0 0Z" fill="#e89fbc"></path><path d="M0 -202.5C26.9 -196.9 53.8 -191.4 73.7 -177.8C93.5 -164.3 106.3 -142.9 126.2 -126.2C146.1 -109.6 173.2 -97.7 187.1 -77.5C201 -57.3 201.7 -28.6 202.5 0L0 0Z" fill="#a097ef"></path><path d="M0 -101.2C13.5 -98.5 26.9 -95.7 36.8 -88.9C46.8 -82.2 53.2 -71.4 63.1 -63.1C73.1 -54.8 86.6 -48.9 93.5 -38.7C100.5 -28.6 100.9 -14.3 101.3 0L0 0Z" fill="#009dff"></path></g></svg>